<mxfile host="www.draw.io" modified="2020-02-27T05:56:24.619Z" agent="Mozilla/5.0 (Macintosh; Intel Mac OS X 10_15_2) AppleWebKit/537.36 (KHTML, like Gecko) Chrome/80.0.3987.116 Safari/537.36" etag="JZCsaUwDR-MR_jzP-0a0" version="12.7.8" type="github">
  <diagram name="Page-1" id="822b0af5-4adb-64df-f703-e8dfc1f81529">
    <mxGraphModel dx="1302" dy="818" grid="1" gridSize="10" guides="1" tooltips="1" connect="1" arrows="1" fold="1" page="1" pageScale="1" pageWidth="1100" pageHeight="850" background="#ffffff" math="0" shadow="0">
      <root>
        <mxCell id="0" />
        <mxCell id="1" parent="0" />
        <mxCell id="BcDXdE_EGNKdk7vwA22y-41" style="edgeStyle=orthogonalEdgeStyle;rounded=0;orthogonalLoop=1;jettySize=auto;html=1;startArrow=block;endArrow=block;strokeColor=#000000;" edge="1" parent="1" source="BcDXdE_EGNKdk7vwA22y-3" target="BcDXdE_EGNKdk7vwA22y-5">
          <mxGeometry relative="1" as="geometry" />
        </mxCell>
        <mxCell id="BcDXdE_EGNKdk7vwA22y-40" style="edgeStyle=orthogonalEdgeStyle;rounded=0;orthogonalLoop=1;jettySize=auto;html=1;entryX=0.5;entryY=0.594;entryDx=0;entryDy=0;startArrow=block;endArrow=block;strokeColor=#000000;entryPerimeter=0;" edge="1" parent="1" source="BcDXdE_EGNKdk7vwA22y-39" target="BcDXdE_EGNKdk7vwA22y-3">
          <mxGeometry relative="1" as="geometry">
            <mxPoint x="300" y="240" as="targetPoint" />
          </mxGeometry>
        </mxCell>
        <mxCell id="BcDXdE_EGNKdk7vwA22y-39" value="" style="whiteSpace=wrap;html=1;" vertex="1" parent="1">
          <mxGeometry x="80" y="100" width="100" height="415" as="geometry" />
        </mxCell>
        <mxCell id="BcDXdE_EGNKdk7vwA22y-35" value="" style="whiteSpace=wrap;html=1;" vertex="1" parent="1">
          <mxGeometry x="830" y="100" width="240" height="670" as="geometry" />
        </mxCell>
        <mxCell id="BcDXdE_EGNKdk7vwA22y-2" value="" style="image;html=1;labelBackgroundColor=#ffffff;image=img/lib/clip_art/networking/Cloud_128x128.png" vertex="1" parent="1">
          <mxGeometry x="370" y="210" width="210" height="210" as="geometry" />
        </mxCell>
        <mxCell id="BcDXdE_EGNKdk7vwA22y-3" value="" style="aspect=fixed;perimeter=ellipsePerimeter;html=1;align=center;shadow=0;dashed=0;spacingTop=3;image;image=img/lib/active_directory/server_farm.svg;" vertex="1" parent="1">
          <mxGeometry x="260" y="260" width="80" height="80" as="geometry" />
        </mxCell>
        <mxCell id="BcDXdE_EGNKdk7vwA22y-60" style="edgeStyle=orthogonalEdgeStyle;rounded=0;orthogonalLoop=1;jettySize=auto;html=1;entryX=0;entryY=0.5;entryDx=0;entryDy=0;startArrow=classic;startFill=1;endArrow=classic;endFill=1;strokeColor=#000000;fontSize=17;" edge="1" parent="1" source="BcDXdE_EGNKdk7vwA22y-5" target="BcDXdE_EGNKdk7vwA22y-6">
          <mxGeometry relative="1" as="geometry" />
        </mxCell>
        <mxCell id="BcDXdE_EGNKdk7vwA22y-5" value="" style="aspect=fixed;html=1;points=[];align=center;image;fontSize=12;image=img/lib/mscae/Web_App_Firewall.svg;" vertex="1" parent="1">
          <mxGeometry x="620.94" y="298" width="82.77" height="82.77" as="geometry" />
        </mxCell>
        <mxCell id="BcDXdE_EGNKdk7vwA22y-55" style="edgeStyle=orthogonalEdgeStyle;rounded=0;orthogonalLoop=1;jettySize=auto;html=1;entryX=0;entryY=0.5;entryDx=0;entryDy=0;startArrow=classic;startFill=1;endArrow=classic;endFill=1;strokeColor=#000000;fontSize=17;" edge="1" parent="1" source="BcDXdE_EGNKdk7vwA22y-6" target="BcDXdE_EGNKdk7vwA22y-35">
          <mxGeometry relative="1" as="geometry" />
        </mxCell>
        <mxCell id="BcDXdE_EGNKdk7vwA22y-6" value="" style="aspect=fixed;perimeter=ellipsePerimeter;html=1;align=center;shadow=0;dashed=0;spacingTop=3;image;image=img/lib/active_directory/database_server.svg;" vertex="1" parent="1">
          <mxGeometry x="703.71" y="403.9" width="51" height="62.2" as="geometry" />
        </mxCell>
        <mxCell id="BcDXdE_EGNKdk7vwA22y-7" value="" style="shape=image;html=1;verticalAlign=top;verticalLabelPosition=bottom;labelBackgroundColor=#ffffff;imageAspect=0;aspect=fixed;image=https://cdn2.iconfinder.com/data/icons/hot-sale-flat/64/cashier_sale_shop-128.png" vertex="1" parent="1">
          <mxGeometry x="840" y="160" width="40" height="40" as="geometry" />
        </mxCell>
        <mxCell id="BcDXdE_EGNKdk7vwA22y-13" value="" style="shape=image;html=1;verticalAlign=top;verticalLabelPosition=bottom;labelBackgroundColor=#ffffff;imageAspect=0;aspect=fixed;image=https://cdn2.iconfinder.com/data/icons/mobile-and-internet-business/285/qr_code-128.png" vertex="1" parent="1">
          <mxGeometry x="880" y="142" width="38" height="38" as="geometry" />
        </mxCell>
        <mxCell id="BcDXdE_EGNKdk7vwA22y-14" value="" style="shape=image;html=1;verticalAlign=top;verticalLabelPosition=bottom;labelBackgroundColor=#ffffff;imageAspect=0;aspect=fixed;image=https://cdn2.iconfinder.com/data/icons/hot-sale-flat/64/cashier_sale_shop-128.png" vertex="1" parent="1">
          <mxGeometry x="840" y="258" width="40" height="40" as="geometry" />
        </mxCell>
        <mxCell id="BcDXdE_EGNKdk7vwA22y-15" value="" style="shape=image;html=1;verticalAlign=top;verticalLabelPosition=bottom;labelBackgroundColor=#ffffff;imageAspect=0;aspect=fixed;image=https://cdn2.iconfinder.com/data/icons/mobile-and-internet-business/285/qr_code-128.png" vertex="1" parent="1">
          <mxGeometry x="880" y="240" width="38" height="38" as="geometry" />
        </mxCell>
        <mxCell id="BcDXdE_EGNKdk7vwA22y-16" value="" style="shape=image;html=1;verticalAlign=top;verticalLabelPosition=bottom;labelBackgroundColor=#ffffff;imageAspect=0;aspect=fixed;image=https://cdn2.iconfinder.com/data/icons/hot-sale-flat/64/cashier_sale_shop-128.png" vertex="1" parent="1">
          <mxGeometry x="840" y="360" width="40" height="40" as="geometry" />
        </mxCell>
        <mxCell id="BcDXdE_EGNKdk7vwA22y-17" value="" style="shape=image;html=1;verticalAlign=top;verticalLabelPosition=bottom;labelBackgroundColor=#ffffff;imageAspect=0;aspect=fixed;image=https://cdn2.iconfinder.com/data/icons/mobile-and-internet-business/285/qr_code-128.png" vertex="1" parent="1">
          <mxGeometry x="880" y="342" width="38" height="38" as="geometry" />
        </mxCell>
        <mxCell id="BcDXdE_EGNKdk7vwA22y-18" value="" style="shape=image;html=1;verticalAlign=top;verticalLabelPosition=bottom;labelBackgroundColor=#ffffff;imageAspect=0;aspect=fixed;image=https://cdn2.iconfinder.com/data/icons/hot-sale-flat/64/cashier_sale_shop-128.png" vertex="1" parent="1">
          <mxGeometry x="840" y="708" width="40" height="40" as="geometry" />
        </mxCell>
        <mxCell id="BcDXdE_EGNKdk7vwA22y-19" value="" style="shape=image;html=1;verticalAlign=top;verticalLabelPosition=bottom;labelBackgroundColor=#ffffff;imageAspect=0;aspect=fixed;image=https://cdn2.iconfinder.com/data/icons/mobile-and-internet-business/285/qr_code-128.png" vertex="1" parent="1">
          <mxGeometry x="880" y="690" width="38" height="38" as="geometry" />
        </mxCell>
        <mxCell id="BcDXdE_EGNKdk7vwA22y-20" value="" style="shape=image;html=1;verticalAlign=top;verticalLabelPosition=bottom;labelBackgroundColor=#ffffff;imageAspect=0;aspect=fixed;image=https://cdn3.iconfinder.com/data/icons/digital-banking-solid-fast-transfer/512/bill_payment-128.png" vertex="1" parent="1">
          <mxGeometry x="990" y="162" width="28" height="28" as="geometry" />
        </mxCell>
        <mxCell id="BcDXdE_EGNKdk7vwA22y-21" value="" style="shape=image;html=1;verticalAlign=top;verticalLabelPosition=bottom;labelBackgroundColor=#ffffff;imageAspect=0;aspect=fixed;image=https://cdn2.iconfinder.com/data/icons/business-process-1/512/client-128.png" vertex="1" parent="1">
          <mxGeometry x="1018" y="142" width="40" height="40" as="geometry" />
        </mxCell>
        <mxCell id="BcDXdE_EGNKdk7vwA22y-22" value="" style="shape=image;html=1;verticalAlign=top;verticalLabelPosition=bottom;labelBackgroundColor=#ffffff;imageAspect=0;aspect=fixed;image=https://cdn4.iconfinder.com/data/icons/logos-and-brands/512/13_Alipay_logo_logos-128.png" vertex="1" parent="1">
          <mxGeometry x="100" y="380" width="50" height="50" as="geometry" />
        </mxCell>
        <mxCell id="BcDXdE_EGNKdk7vwA22y-23" value="" style="shape=image;html=1;verticalAlign=top;verticalLabelPosition=bottom;labelBackgroundColor=#ffffff;imageAspect=0;aspect=fixed;image=https://cdn4.iconfinder.com/data/icons/flipicons-vol-2-2/512/WeChat-128.png" vertex="1" parent="1">
          <mxGeometry x="100" y="310" width="50" height="50" as="geometry" />
        </mxCell>
        <mxCell id="BcDXdE_EGNKdk7vwA22y-24" value="" style="outlineConnect=0;fontColor=#232F3E;gradientColor=none;fillColor=#277116;strokeColor=none;dashed=0;verticalLabelPosition=bottom;verticalAlign=top;align=center;html=1;fontSize=12;fontStyle=0;aspect=fixed;pointerEvents=1;shape=mxgraph.aws4.bank;" vertex="1" parent="1">
          <mxGeometry x="100" y="170" width="50" height="50" as="geometry" />
        </mxCell>
        <mxCell id="BcDXdE_EGNKdk7vwA22y-26" value="" style="shape=image;html=1;verticalAlign=top;verticalLabelPosition=bottom;labelBackgroundColor=#ffffff;imageAspect=0;aspect=fixed;image=https://cdn3.iconfinder.com/data/icons/social-media-chamfered-corner/154/line-128.png" vertex="1" parent="1">
          <mxGeometry x="100" y="450" width="50" height="50" as="geometry" />
        </mxCell>
        <mxCell id="BcDXdE_EGNKdk7vwA22y-27" value="" style="shape=image;html=1;verticalAlign=top;verticalLabelPosition=bottom;labelBackgroundColor=#ffffff;imageAspect=0;aspect=fixed;image=https://cdn1.iconfinder.com/data/icons/ensign-11/512/254_Ensign_Flag_Nation_thailand-128.png" vertex="1" parent="1">
          <mxGeometry x="103" y="110" width="50" height="50" as="geometry" />
        </mxCell>
        <mxCell id="BcDXdE_EGNKdk7vwA22y-28" value="" style="shape=image;html=1;verticalAlign=top;verticalLabelPosition=bottom;labelBackgroundColor=#ffffff;imageAspect=0;aspect=fixed;image=https://cdn2.iconfinder.com/data/icons/mobile-and-internet-business/438/mobile_wallet-128.png" vertex="1" parent="1">
          <mxGeometry x="97" y="231" width="56" height="56" as="geometry" />
        </mxCell>
        <mxCell id="BcDXdE_EGNKdk7vwA22y-47" style="edgeStyle=orthogonalEdgeStyle;rounded=0;orthogonalLoop=1;jettySize=auto;html=1;startArrow=none;endArrow=classic;strokeColor=#000000;startFill=0;endFill=1;" edge="1" parent="1" source="BcDXdE_EGNKdk7vwA22y-29" target="BcDXdE_EGNKdk7vwA22y-32">
          <mxGeometry relative="1" as="geometry" />
        </mxCell>
        <mxCell id="BcDXdE_EGNKdk7vwA22y-48" value="THB" style="text;html=1;align=center;verticalAlign=middle;resizable=0;points=[];labelBackgroundColor=#ffffff;fontSize=22;" vertex="1" connectable="0" parent="BcDXdE_EGNKdk7vwA22y-47">
          <mxGeometry x="0.4684" y="-2" relative="1" as="geometry">
            <mxPoint as="offset" />
          </mxGeometry>
        </mxCell>
        <mxCell id="BcDXdE_EGNKdk7vwA22y-29" value="" style="points=[];aspect=fixed;html=1;align=center;shadow=0;dashed=0;image;image=img/lib/allied_telesis/buildings/Medium_Business_Building.svg;" vertex="1" parent="1">
          <mxGeometry x="275.4" y="559.9" width="54.6" height="70.19999999999999" as="geometry" />
        </mxCell>
        <mxCell id="BcDXdE_EGNKdk7vwA22y-31" value="" style="shape=mxgraph.signs.travel.bank;html=1;fillColor=#000000;strokeColor=none;verticalLabelPosition=bottom;verticalAlign=top;align=center;" vertex="1" parent="1">
          <mxGeometry x="455.4" y="554" width="70" height="59" as="geometry" />
        </mxCell>
        <mxCell id="BcDXdE_EGNKdk7vwA22y-32" value="" style="points=[];aspect=fixed;html=1;align=center;shadow=0;dashed=0;image;image=img/lib/allied_telesis/buildings/School_Building.svg;" vertex="1" parent="1">
          <mxGeometry x="686.48" y="545" width="98.92" height="100" as="geometry" />
        </mxCell>
        <mxCell id="BcDXdE_EGNKdk7vwA22y-36" value="Ksher Payment Service &lt;br style=&quot;font-size: 17px;&quot;&gt;on the Cloud" style="text;html=1;resizable=0;autosize=1;align=center;verticalAlign=middle;points=[];fillColor=none;strokeColor=none;rounded=0;fontSize=17;" vertex="1" parent="1">
          <mxGeometry x="205" y="210" width="190" height="50" as="geometry" />
        </mxCell>
        <mxCell id="BcDXdE_EGNKdk7vwA22y-49" value="Mobile Wallet Issuers" style="text;html=1;resizable=0;autosize=1;align=center;verticalAlign=middle;points=[];fillColor=none;strokeColor=none;rounded=0;fontSize=22;" vertex="1" parent="1">
          <mxGeometry x="40" y="530" width="220" height="30" as="geometry" />
        </mxCell>
        <mxCell id="BcDXdE_EGNKdk7vwA22y-50" value="Ksher" style="text;html=1;resizable=0;autosize=1;align=center;verticalAlign=middle;points=[];fillColor=none;strokeColor=none;rounded=0;fontSize=22;" vertex="1" parent="1">
          <mxGeometry x="260" y="630.1" width="70" height="30" as="geometry" />
        </mxCell>
        <mxCell id="BcDXdE_EGNKdk7vwA22y-51" value="Thai Post" style="text;html=1;resizable=0;autosize=1;align=center;verticalAlign=middle;points=[];fillColor=none;strokeColor=none;rounded=0;fontSize=22;" vertex="1" parent="1">
          <mxGeometry x="680.9399999999999" y="645" width="110" height="30" as="geometry" />
        </mxCell>
        <mxCell id="BcDXdE_EGNKdk7vwA22y-52" value="Thai POST Branches" style="text;html=1;resizable=0;autosize=1;align=center;verticalAlign=middle;points=[];fillColor=none;strokeColor=none;rounded=0;fontSize=22;" vertex="1" parent="1">
          <mxGeometry x="840" y="515" width="220" height="30" as="geometry" />
        </mxCell>
        <mxCell id="BcDXdE_EGNKdk7vwA22y-53" value="Thai Post &lt;br&gt;Payment Gateway" style="text;html=1;resizable=0;autosize=1;align=center;verticalAlign=middle;points=[];fillColor=none;strokeColor=none;rounded=0;fontSize=22;" vertex="1" parent="1">
          <mxGeometry x="630" y="470" width="200" height="60" as="geometry" />
        </mxCell>
      </root>
    </mxGraphModel>
  </diagram>
</mxfile>
